PathFileType	4	(X/Y/Z)	c:/Users/goper/Files/vsCode/490R/osim_files/C11/C11_SSWS_02.trc
DataRate	CameraRate	NumFrames	NumMarkers	Units                	OrigDataRate	OrigDataStartFrame	OrigNumFrames
120.00	120.00	5	36	mm	120.0	929	1238
                Frame#	Time	LPSI			LASI			LTH1			LTH2			LTH3			LTH4			LLFE			LMFE			LSH1			LSH2			LSH3			LSH4			LLMA			LMMA			LCAL			LMTP			LTOE			LMTP			RPSI			RASI			RTH1			RTH2			RTH3			RTH4			RLFE			RMFE			RSH1			RSH2			RSH3			RSH4			RLMA			RMMA			RCAL			RMTP			RTOE			RMTP		
		X1	Y1	Z1	X2	Y2	Z2	X3	Y3	Z3	X4	Y4	Z4	X5	Y5	Z5	X6	Y6	Z6	X7	Y7	Z7	X8	Y8	Z8	X9	Y9	Z9	X10	Y10	Z10	X11	Y11	Z11	X12	Y12	Z12	X13	Y13	Z13	X14	Y14	Z14	X15	Y15	Z15	X16	Y16	Z16	X17	Y17	Z17	X18	Y18	Z18	X19	Y19	Z19	X20	Y20	Z20	X21	Y21	Z21	X22	Y22	Z22	X23	Y23	Z23	X24	Y24	Z24	X25	Y25	Z25	X26	Y26	Z26	X27	Y27	Z27	X28	Y28	Z28	X29	Y29	Z29	X30	Y30	Z30	X31	Y31	Z31	X32	Y32	Z32	X33	Y33	Z33	X34	Y34	Z34	X35	Y35	Z35	X36	Y36	Z36

929	7.73333	0.00000	0.00000	0.00000	-3578.13770	991.12262	281.92740	-3534.95215	585.62415	304.54074	0.00000	0.00000	0.00000	-3590.65503	591.82220	328.25259	-3595.36548	545.74902	320.18073	-3572.75537	486.87173	316.10571	0.00000	0.00000	0.00000	-3477.53271	465.53275	326.43787	-3442.18286	441.30685	328.41815	0.00000	0.00000	0.00000	-3469.33228	394.15686	334.98788	-3221.93848	288.52145	293.10239	-3258.44287	260.18036	206.70319	-3172.21387	320.59998	231.19867	-3212.66431	167.46991	332.71225	-3271.10547	107.77975	279.24136	-3241.03125	129.49670	228.19414	-3407.94556	1002.44342	125.42397	-3577.38989	994.65033	51.11646	0.00000	0.00000	0.00000	-3606.51392	592.34985	21.36440	-3652.49780	650.38440	27.50129	-3657.94482	608.11810	33.70071	0.00000	0.00000	0.00000	-3615.57935	500.54071	152.61005	-3583.03125	407.82428	26.99317	0.00000	0.00000	0.00000	-3648.00244	408.30786	39.01634	-3642.39941	361.08105	40.43851	-3592.90430	108.05538	88.88831	-3618.85107	113.67986	178.38069	-3526.56714	68.76880	143.91946	-3751.24609	62.29341	153.42642	-3750.82300	75.60920	103.19994	-3703.98291	51.85504	44.59154
930	7.74167	0.00000	0.00000	0.00000	-3585.99805	993.38641	281.03607	-3550.39014	588.14679	304.04251	0.00000	0.00000	0.00000	-3605.91260	595.28650	327.62842	-3611.58765	549.55298	319.36517	-3590.00879	490.57376	315.10855	-3624.75879	484.87491	201.97864	-3495.49341	470.02682	325.20901	-3459.70850	445.28821	326.68503	0.00000	0.00000	0.00000	-3487.05176	398.28214	333.72736	-3240.28711	290.30423	291.62988	-3277.47900	262.25040	205.70680	-3190.10718	320.33643	229.63174	-3234.10742	169.25647	332.30515	-3294.43921	110.81142	279.42233	-3263.75269	131.20529	228.10063	-3415.77954	1003.87891	124.80966	-3584.93774	995.99408	50.17599	0.00000	0.00000	0.00000	-3610.03394	593.00806	20.97501	-3656.97925	650.35583	27.23799	-3661.93457	608.04932	33.40708	0.00000	0.00000	0.00000	-3617.71997	500.60028	152.14307	-3584.98267	407.92386	26.51814	0.00000	0.00000	0.00000	-3649.91479	408.13077	38.77674	-3644.08252	360.95938	40.24461	-3592.92847	108.20177	88.86041	-3618.85938	113.69888	178.40431	-3526.55151	68.81039	143.92657	-3751.24731	62.29923	153.43217	-3750.81128	75.58076	103.19598	-3703.92041	51.81514	44.56475
931	7.75000	0.00000	0.00000	0.00000	-3593.77148	995.64819	280.17023	-3565.62524	590.94281	303.78726	0.00000	0.00000	0.00000	-3621.16284	599.15619	327.17255	-3627.77734	553.55658	318.74811	-3607.23633	494.55057	314.24316	0.00000	0.00000	0.00000	-3513.42896	474.55261	324.03329	-3477.33911	449.00034	324.92401	0.00000	0.00000	0.00000	-3504.78809	402.28867	332.40268	-3259.09839	291.02945	290.16666	-3296.85547	263.32190	204.49286	-3207.58081	319.31125	227.96771	-3256.39136	170.16150	331.78491	-3317.32495	112.23962	279.52307	-3286.91064	132.17291	227.81274	-3423.81543	1005.43683	124.19987	-3592.58887	997.41425	49.38187	-3600.23340	633.84729	11.53548	-3613.44507	593.29266	20.57956	-3661.10498	650.26880	26.86150	-3665.61426	607.90399	33.04613	0.00000	0.00000	0.00000	-3619.90527	500.77454	151.70586	-3586.55640	408.21347	26.33577	0.00000	0.00000	0.00000	-3651.55298	408.09320	38.37883	-3645.35522	360.87091	39.84722	-3592.97266	108.30237	88.84798	-3618.89160	113.72997	178.41164	-3526.60571	68.86289	143.92853	-3751.24731	62.27273	153.42009	-3750.80005	75.53137	103.18105	-3703.88745	51.73817	44.49143
932	7.75833	0.00000	0.00000	0.00000	-3601.48975	997.96851	279.31897	-3580.68823	593.87585	303.72269	0.00000	0.00000	0.00000	-3636.20801	603.09863	326.79572	-3643.61401	557.61542	318.20776	-3623.98853	498.44131	313.40237	-3657.56470	493.06641	199.93616	-3531.08911	478.84229	322.89423	-3494.66382	452.20758	323.21921	0.00000	0.00000	0.00000	-3522.49902	405.89761	331.13254	-3278.41113	290.90942	288.71573	-3316.63354	263.61496	203.14439	-3225.73633	317.26651	226.50606	-3279.29663	170.20238	331.23178	-3342.44165	114.45710	278.94019	-3310.39697	132.33997	227.36337	-3431.04517	1007.14886	123.53675	-3600.02197	998.82153	48.44546	-3604.46606	634.96863	11.35666	-3616.51123	593.89691	20.09797	-3664.88940	650.12128	26.38945	-3668.88110	607.66919	32.48236	0.00000	0.00000	0.00000	-3623.29883	500.89917	151.05591	-3587.62866	408.55396	26.31338	0.00000	0.00000	0.00000	-3652.31006	408.50397	37.89341	-3646.42651	360.92819	39.40081	-3593.02246	108.38660	88.83979	-3618.93896	113.78729	178.38631	-3526.68213	68.96119	143.90585	-3751.24561	62.26481	153.40805	-3750.78369	75.45602	103.14713	-3703.90527	51.71537	44.41443
933	7.76667	0.00000	0.00000	0.00000	-3609.18213	1000.28943	278.50519	-3595.60669	596.87720	303.87903	0.00000	0.00000	0.00000	-3650.86011	607.01892	326.44580	-3659.23242	561.83075	317.72556	-3640.49390	502.52731	312.54166	0.00000	0.00000	0.00000	0.00000	0.00000	0.00000	-3511.75342	454.87143	321.65253	0.00000	0.00000	0.00000	-3540.28833	409.15454	329.87115	-3298.17163	289.83127	287.34152	-3336.67798	263.03445	201.73512	-3244.95630	314.19705	225.56100	-3302.65967	169.54138	330.56180	-3365.57251	114.08711	277.79465	-3334.20166	131.81000	226.81651	-3438.67065	1008.87830	123.02402	-3607.43188	1000.22919	47.58370	-3607.61255	635.71692	11.02494	-3619.35107	594.18268	19.75504	-3668.34253	649.92761	25.76931	-3671.85986	607.47314	31.87132	0.00000	0.00000	0.00000	-3625.14160	501.43384	150.80795	-3588.50098	408.94510	26.37906	0.00000	0.00000	0.00000	-3653.12988	408.53848	37.39416	-3647.05811	361.01208	38.86758	-3593.06641	108.48410	88.83399	-3618.97754	113.86275	178.36974	-3526.75439	69.11595	143.90758	-3751.23657	62.26405	153.37361	-3750.77393	75.41049	103.10213	-3703.94727	51.76506	44.39499
